<?xml version="1.0" encoding="UTF-8" standalone="no"?>
<!-- Created with Inkscape (http://www.inkscape.org/) -->

<svg
   xmlns:dc="http://purl.org/dc/elements/1.1/"
   xmlns:cc="http://creativecommons.org/ns#"
   xmlns:rdf="http://www.w3.org/1999/02/22-rdf-syntax-ns#"
   xmlns:svg="http://www.w3.org/2000/svg"
   xmlns="http://www.w3.org/2000/svg"
   xmlns:sodipodi="http://sodipodi.sourceforge.net/DTD/sodipodi-0.dtd"
   xmlns:inkscape="http://www.inkscape.org/namespaces/inkscape"
   width="24.812101mm"
   height="7.494216mm"
   viewBox="0 0 24.812101 7.494216"
   version="1.1"
   id="svg8"
   inkscape:version="0.92.3 (2405546, 2018-03-11)"
   sodipodi:docname="arup svg.svg">
  <defs
     id="defs2" />
  <sodipodi:namedview
     id="base"
     pagecolor="#00ffff"
     bordercolor="#666666"
     borderopacity="1.0"
     inkscape:pageopacity="0"
     inkscape:pageshadow="2"
     inkscape:zoom="0.49497475"
     inkscape:cx="-42.409989"
     inkscape:cy="-63.116041"
     inkscape:document-units="mm"
     inkscape:current-layer="layer1"
     showgrid="false"
     fit-margin-top="0"
     fit-margin-left="0"
     fit-margin-right="0"
     fit-margin-bottom="0"
     inkscape:window-width="1920"
     inkscape:window-height="1017"
     inkscape:window-x="-8"
     inkscape:window-y="-8"
     inkscape:window-maximized="1" />
  <metadata
     id="metadata5">
    <rdf:RDF>
      <cc:Work
         rdf:about="">
        <dc:format>image/svg+xml</dc:format>
        <dc:type
           rdf:resource="http://purl.org/dc/dcmitype/StillImage" />
        <dc:title></dc:title>
      </cc:Work>
    </rdf:RDF>
  </metadata>
  <g
     inkscape:label="Layer 1"
     inkscape:groupmode="layer"
     id="layer1"
     transform="translate(-94.975022,-86.05568)">
    <path
       style="fill:#000000;stroke-width:0.00843483"
       d="m 111.04415,93.545404 c -0.60165,-0.04639 -1.15089,-0.298535 -1.57804,-0.724706 -0.38364,-0.382765 -0.61955,-0.848303 -0.70972,-1.400619 l -0.0186,-0.113902 -0.005,-2.024357 -0.005,-2.024358 -0.0186,-0.06576 c -0.0401,-0.141187 -0.11537,-0.248277 -0.22417,-0.31891 -0.0569,-0.03693 -0.16194,-0.07407 -0.22901,-0.081 l -0.0467,-0.0049 v -0.104258 -0.104257 h 1.06701 1.067 v 0.105432 0.105433 h -0.0317 c -0.0469,0 -0.14649,0.02988 -0.21552,0.06461 -0.0768,0.0387 -0.17004,0.129742 -0.20619,0.201375 -0.0137,0.02802 -0.0346,0.07925 -0.0455,0.113872 l -0.0198,0.06296 v 2.121357 2.12136 l 0.02,0.09699 c 0.12696,0.615436 0.59064,1.080996 1.19374,1.198698 0.39286,0.07661 0.78166,-0.0031 1.12344,-0.229495 0.12681,-0.08408 0.30497,-0.262415 0.39037,-0.390612 0.13612,-0.204318 0.21553,-0.411101 0.24975,-0.650286 0.0122,-0.08279 0.0137,-0.317162 0.0107,-2.176184 -0.003,-1.980738 -0.003,-2.085899 -0.0177,-2.134012 -0.0476,-0.158212 -0.14421,-0.277406 -0.27545,-0.339701 -0.0742,-0.03522 -0.16252,-0.06095 -0.20931,-0.06095 h -0.0269 v -0.105433 -0.105433 h 0.99953 0.99953 v 0.104258 0.104258 l -0.0467,0.0049 c -0.17154,0.01767 -0.33578,0.12994 -0.40896,0.27945 -0.0688,0.140547 -0.0621,-0.07282 -0.0682,2.176837 -0.003,1.104117 -0.008,2.02267 -0.0107,2.041226 -0.003,0.01854 -0.0107,0.0736 -0.0182,0.122311 -0.0726,0.517625 -0.3233,1.01214 -0.7076,1.396056 -0.19715,0.196932 -0.41265,0.351732 -0.66252,0.475858 -0.28083,0.139478 -0.55073,0.219411 -0.85572,0.253349 -0.11323,0.01221 -0.35008,0.01709 -0.45992,0.0092 z m -3.34772,-0.0092 c -0.42045,-0.04395 -0.78654,-0.255624 -1.23262,-0.712712 -0.31357,-0.321275 -0.58662,-0.670663 -1.08348,-1.386356 -0.33061,-0.476213 -0.42502,-0.600015 -0.55498,-0.727653 -0.19122,-0.187838 -0.40505,-0.33181 -0.57866,-0.389626 -0.0354,-0.01175 -0.07,-0.02149 -0.0769,-0.02153 -0.031,-3.14e-4 -0.0343,-0.01114 -0.0252,-0.08057 0.005,-0.03679 0.0107,-0.07639 0.0137,-0.08799 l 0.005,-0.02106 0.141,-9.54e-4 c 0.37061,-0.0029 0.72544,-0.09893 0.97119,-0.262367 0.19325,-0.128521 0.34749,-0.346949 0.43357,-0.614034 0.16292,-0.505408 0.062,-1.03263 -0.27866,-1.454786 -0.0719,-0.08915 -0.22146,-0.230766 -0.3089,-0.292561 -0.19731,-0.139448 -0.45669,-0.234462 -0.72251,-0.264679 -0.2165,-0.02458 -0.5531,0.01567 -0.61743,0.07389 -0.0153,0.01312 -0.0153,0.120479 -0.0153,2.604035 1e-4,1.650167 0.003,2.619373 0.009,2.670422 0.0122,0.110102 0.0363,0.201925 0.0777,0.286772 0.0279,0.05753 0.0493,0.08607 0.10713,0.144056 0.0734,0.0734 0.11125,0.09919 0.19455,0.132458 0.0557,0.02228 0.14558,0.0438 0.18346,0.04395 l 0.0273,1.22e-4 v 0.10972 0.109569 h -1.08387 -1.08389 v -0.107698 -0.107737 l 0.0598,-0.0092 c 0.036,-0.0061 0.0844,-0.02152 0.12147,-0.03983 0.15491,-0.07661 0.24888,-0.221044 0.28682,-0.440959 0.0107,-0.06574 0.0122,-0.386689 0.0107,-2.75669 -0.002,-2.552262 -0.003,-2.684728 -0.0174,-2.732883 -0.0446,-0.148863 -0.13764,-0.265809 -0.2632,-0.330471 -0.0832,-0.04288 -0.16523,-0.06856 -0.24139,-0.07564 l -0.058,-0.0053 V 86.683731 86.57955 l 0.99742,-0.0018 c 0.54859,-9.54e-4 1.08282,2.99e-4 1.18721,0.0034 1.08248,0.03098 1.85254,0.426917 2.20895,1.135743 0.0772,0.15349 0.1471,0.381706 0.17503,0.571515 0.0204,0.139066 0.0206,0.418506 2.7e-4,0.552059 -0.0571,0.375025 -0.19336,0.676853 -0.42838,0.949212 -0.14283,0.165512 -0.36782,0.330071 -0.59536,0.435437 l -0.0742,0.03435 0.0209,0.01373 c 0.0453,0.02983 0.16768,0.137113 0.22367,0.196196 0.10819,0.114146 0.2014,0.228282 0.44699,0.547192 0.67711,0.879285 1.19279,1.52268 1.35806,1.694388 0.19733,0.205036 0.41552,0.344514 0.6412,0.409919 0.0902,0.02609 0.2279,0.04654 0.31369,0.04654 h 0.067 l 0.0153,0.06837 c 0.008,0.03754 0.0165,0.0731 0.0188,0.0789 0.008,0.02121 -0.22658,0.127117 -0.37215,0.167877 -0.20291,0.05692 -0.40569,0.07539 -0.60219,0.05478 z M 94.975808,93.28537 v -0.108652 l 0.04013,-0.0061 c 0.149855,-0.02198 0.340149,-0.162292 0.457531,-0.337189 0.02472,-0.03693 0.0647,-0.108958 0.08881,-0.160263 0.02411,-0.05127 0.583929,-1.561215 1.244109,-3.355408 0.66019,-1.794192 1.20258,-3.262125 1.20531,-3.262078 0.003,4.7e-5 0.67829,1.504081 1.50122,3.3423 0.822942,1.838216 1.511032,3.368777 1.529132,3.401251 0.0707,0.126812 0.18915,0.244178 0.31009,0.307096 0.0687,0.03571 0.17236,0.06821 0.21755,0.06821 h 0.0276 v 0.109568 0.10972 h -1.11761 -1.117622 v -0.108499 -0.1085 l 0.058,-0.0061 c 0.0635,-0.0061 0.15514,-0.03159 0.20704,-0.05799 0.0555,-0.02823 0.11842,-0.09446 0.14421,-0.151991 0.0415,-0.09248 0.0377,-0.202564 -0.0122,-0.346104 -0.0137,-0.03821 -0.16484,-0.399671 -0.33681,-0.803281 l -0.31268,-0.733828 h -1.05121 -1.05123 l -0.26566,0.763352 c -0.14604,0.419841 -0.27304,0.79182 -0.28204,0.826606 -0.0186,0.07203 -0.022,0.182283 -0.008,0.237311 0.0354,0.131237 0.1381,0.218464 0.30079,0.255104 0.0334,0.0076 0.0742,0.01373 0.0907,0.01373 h 0.0299 v 0.109721 0.109568 h -0.94892 -0.948926 z m 3.90285,-2.757042 c -0.002,-0.0034 -0.20984,-0.493652 -0.46208,-1.089269 -0.43122,-1.01833 -0.45918,-1.081487 -0.46844,-1.058573 -0.006,0.01343 -0.16947,0.487444 -0.36454,1.053421 -0.19507,0.565979 -0.36043,1.045182 -0.36746,1.064901 l -0.0122,0.03583 h 0.83939 c 0.46166,0 0.83783,-0.0029 0.83592,-0.0064 z m 16.386032,2.846757 c 0.003,-0.01068 0.005,-0.05982 0.005,-0.109721 l 1.2e-4,-0.09064 0.0232,-9.2e-5 c 0.0122,-6.1e-5 0.0441,-0.0061 0.0696,-0.01221 0.15301,-0.04059 0.27177,-0.147871 0.3367,-0.303784 0.0566,-0.135969 0.0543,-0.09492 0.0572,-1.054352 10e-4,-0.477833 -4.9e-4,-1.698142 -0.005,-2.711798 l -0.008,-1.843007 -0.023,-0.07572 c -0.0324,-0.105936 -0.0586,-0.150801 -0.13154,-0.22468 -0.0874,-0.08855 -0.19911,-0.143003 -0.32472,-0.158335 l -0.0424,-0.0052 -0.003,-0.103327 -0.003,-0.103327 h 1.11198 c 1.10534,0 1.21677,0.0024 1.44009,0.03011 0.67804,0.08442 1.22046,0.334559 1.5625,0.720568 0.28116,0.317281 0.44289,0.750273 0.45534,1.219138 0.005,0.18634 -0.003,0.28563 -0.0365,0.444547 -0.11339,0.540409 -0.50975,1.049728 -1.00286,1.288666 -0.12208,0.05913 -0.2238,0.09379 -0.3515,0.119655 -0.0827,0.01677 -0.11995,0.0193 -0.27688,0.01888 -0.16382,-4.19e-4 -0.19176,-0.0029 -0.28895,-0.02326 -0.1404,-0.02973 -0.26475,-0.07169 -0.39115,-0.132001 -0.11552,-0.0551 -0.22253,-0.121181 -0.22224,-0.137219 1.1e-4,-0.006 0.008,-0.03727 0.0154,-0.06975 l 0.0153,-0.05904 0.0331,9.54e-4 c 0.0182,4.76e-4 0.0745,0.0052 0.12514,0.01053 0.11536,0.01206 0.31736,0.01236 0.42482,9.52e-4 0.38136,-0.04146 0.63573,-0.183666 0.8138,-0.455011 0.0574,-0.08746 0.11704,-0.214541 0.15245,-0.325092 0.16247,-0.506998 0.0617,-1.032673 -0.27885,-1.454786 -0.0719,-0.08915 -0.22146,-0.230766 -0.3089,-0.292561 -0.19731,-0.139447 -0.45669,-0.234462 -0.72251,-0.264678 -0.21649,-0.02459 -0.5531,0.01567 -0.61742,0.07389 -0.0153,0.01312 -0.0153,0.120571 -0.0153,2.604035 0,1.674317 0.003,2.621971 0.009,2.679882 0.0188,0.198335 0.0716,0.325177 0.18045,0.434318 0.0545,0.05448 0.0829,0.07538 0.13994,0.103006 0.0731,0.03525 0.15942,0.06028 0.20877,0.06043 l 0.0273,1.23e-4 v 0.10972 0.109568 h -1.08063 -1.08065 z"
       id="path3724"
       inkscape:connector-curvature="0" />
  </g>
</svg>
