<?xml version="1.0" encoding="UTF-8" standalone="no"?>
<!-- Created with Inkscape (http://www.inkscape.org/) -->

<svg
   xmlns:dc="http://purl.org/dc/elements/1.1/"
   xmlns:cc="http://creativecommons.org/ns#"
   xmlns:rdf="http://www.w3.org/1999/02/22-rdf-syntax-ns#"
   xmlns:svg="http://www.w3.org/2000/svg"
   xmlns="http://www.w3.org/2000/svg"
   xmlns:sodipodi="http://sodipodi.sourceforge.net/DTD/sodipodi-0.dtd"
   xmlns:inkscape="http://www.inkscape.org/namespaces/inkscape"
   width="179"
   height="45.299999"
   viewBox="0 0 47.360416 11.985625"
   version="1.1"
   id="svg10187"
   inkscape:version="0.92.0 r15299"
   sodipodi:docname="meridian credit union.svg">
  <defs
     id="defs10181" />
  <sodipodi:namedview
     id="base"
     pagecolor="#ffffff"
     bordercolor="#666666"
     borderopacity="1.0"
     inkscape:pageopacity="0.0"
     inkscape:pageshadow="2"
     inkscape:zoom="4.505618"
     inkscape:cx="88.999999"
     inkscape:cy="22.15"
     inkscape:document-units="mm"
     inkscape:current-layer="layer1"
     showgrid="false"
     fit-margin-top="0"
     fit-margin-left="0"
     fit-margin-right="0"
     fit-margin-bottom="0"
     units="px"
     inkscape:window-width="1280"
     inkscape:window-height="744"
     inkscape:window-x="-4"
     inkscape:window-y="-4"
     inkscape:window-maximized="1" />
  <metadata
     id="metadata10184">
    <rdf:RDF>
      <cc:Work
         rdf:about="">
        <dc:format>image/svg+xml</dc:format>
        <dc:type
           rdf:resource="http://purl.org/dc/dcmitype/StillImage" />
        <dc:title></dc:title>
      </cc:Work>
    </rdf:RDF>
  </metadata>
  <g
     inkscape:label="Layer 1"
     inkscape:groupmode="layer"
     id="layer1"
     transform="translate(166.42291,-246.2737)">
    <g
       id="g10232"
       transform="matrix(0.26458333,0,0,0.26458333,-166.66103,246.00912)">
      <g
         id="g10205">
	<path
   id="path10191"
   d="m 154.2,13.5 c 0,-1.8 -1.3,-2 -2.4,-2 v -0.7 l 5.7,-0.8 0.2,3.5 h 0.1 c 1.1,-2 3.5,-4 7.1,-4 3,0 7.6,1.8 7.6,9.1 v 12.8 h -3.9 V 19 c 0,-3.5 -1.3,-6.4 -5,-6.4 -2.5,0 -4.5,1.8 -5.2,4 -0.2,0.5 -0.3,1.2 -0.3,1.8 v 12.9 h -3.9 c 0,0.1 0,-17.1 0,-17.8"
   class="st0"
   inkscape:connector-curvature="0"
   style="fill:#50748a" />

	<path
   id="path10193"
   d="m 46.7,21.3 c 0.1,5.3 3.4,7.4 7.3,7.4 2.8,0 4.5,-0.5 5.9,-1.1 l 0.7,2.7 c -1.4,0.6 -3.8,1.4 -7.2,1.4 C 47,31.8 43,27.5 43,21 43,14.5 46.9,9.4 53.1,9.4 c 7,0 8.8,6.2 8.8,10.1 0,0.8 0,1.4 -0.1,1.9 z m 11.4,-2.8 c 0,-2.4 -1,-6.3 -5.4,-6.3 -4,0 -5.7,3.6 -6,6.3 z"
   class="st0"
   inkscape:connector-curvature="0"
   style="fill:#50748a" />

	<path
   id="path10195"
   d="m 147.4,26.3 c 0,1.9 0.1,3.7 0.3,5.1 h -3.5 l -0.4,-2.7 h -0.1 c -1.2,1.7 -3.5,3.2 -6.6,3.2 -4.3,0 -6.5,-3.1 -6.5,-6.2 0,-5.2 4.6,-8 12.9,-8 v -0.4 c 0,-1.8 -0.5,-5 -4.9,-5 -2,0 -4.1,0.6 -5.6,1.6 l -0.9,-2.6 c 1.8,-1.1 4.4,-1.9 7.1,-1.9 6.6,0 8.2,4.5 8.2,8.8 z m -3.8,-5.8 c -4.2,-0.1 -9.1,0.7 -9.1,4.8 0,2.6 1.7,3.7 3.6,3.7 2.8,0 4.7,-1.8 5.3,-3.6 0.1,-0.4 0.2,-0.8 0.2,-1.2 z"
   class="st0"
   inkscape:connector-curvature="0"
   style="fill:#50748a" />

	<path
   id="path10197"
   d="m 84,10 h 3.9 V 31.4 H 84 Z m 4.3,-4.3 c 0,-1.3 -1,-2.3 -2.3,-2.3 -1.3,0 -2.3,1 -2.3,2.3 0,1.3 1,2.3 2.3,2.3 1.3,0 2.3,-1 2.3,-2.3"
   class="st0"
   inkscape:connector-curvature="0"
   style="fill:#50748a" />

	<path
   id="path10199"
   d="m 120.9,10 h 3.9 v 21.4 h -3.9 z m 4.4,-4.3 c 0,-1.3 -1,-2.3 -2.3,-2.3 -1.3,0 -2.3,1 -2.3,2.3 0,1.3 1,2.3 2.3,2.3 1.3,0 2.3,-1 2.3,-2.3"
   class="st0"
   inkscape:connector-curvature="0"
   style="fill:#50748a" />

	<path
   id="path10201"
   d="m 71.3,10 -5.7,0.8 v 0.7 c 1.3,0 2.4,0.3 2.4,2.6 0,0.8 0,1.7 0,2.6 v 14.7 h 3.9 V 20 c 0,-0.7 0,-1.3 0.1,-1.8 0.5,-2.9 2.5,-5 5.2,-5 0.5,0 0.9,0 1.4,0.1 V 9.7 C 78.2,9.6 77.9,9.6 77.5,9.6 c -2.6,0 -5,1.8 -6,4.7 h -0.1 z"
   class="st0"
   inkscape:connector-curvature="0"
   style="fill:#50748a" />

	<path
   id="path10203"
   d="m 106.1,10.1 c 3.2,1.6 2.6,5.5 2.6,5.5 -0.9,-1.8 -2.7,-3 -5.1,-3 -4,0 -6.4,3.6 -6.4,8.2 0,4.4 2.2,8 6.3,8 2.6,0 5,-1.8 5.7,-4.6 0.1,-0.5 0.2,-1.1 0.2,-1.7 v -21 h 3.9 V 26 c 0,1.9 0,4.1 0.2,5.5 H 110 l -0.2,-3.7 h -0.1 c -1.2,2.4 -3.8,4.2 -7.3,4.2 -5.2,0 -9.2,-4.4 -9.2,-10.9 0,-7.2 4.4,-11.5 9.6,-11.5 0.9,-0.1 2.3,0 3.3,0.5"
   class="st0"
   inkscape:connector-curvature="0"
   style="fill:#50748a" />

</g>
      <path
         id="path10207"
         d="m 178.7,6.2 h 0.7 V 9.4 H 179 v -2.9 0 l -1.2,2.9 h -0.2 l -1.2,-2.9 v 0 2.9 H 176 V 6.2 h 0.7 l 1,2.6 z M 174,6.5 h -1.1 V 6.2 h 2.5 v 0.3 h -1.1 V 9.4 H 174 Z"
         class="st0"
         inkscape:connector-curvature="0"
         style="fill:#50748a" />
      <path
         id="path10209"
         d="m 23.2,45.8 c -3.5,0 -6.8,-0.5 -9.8,-1.6 C 11,43.4 8.8,42.2 6.8,40.7 3.5,38.2 2,35.7 2,35.6 1.8,35.3 1.7,35 1.5,34.8 c 0,0 -0.1,-0.2 -0.1,-0.4 0,-0.3 0.2,-0.7 0.7,-0.7 0.4,0 0.7,0.4 0.7,0.4 0.3,0.3 1.5,2.3 4.6,4.4 2.9,2 8.1,4.3 15.8,4.3 7.7,0 12.8,-2.4 15.8,-4.3 3.1,-2.1 4.4,-4.1 4.6,-4.4 0,0 0.3,-0.4 0.7,-0.4 0.5,0 0.7,0.5 0.7,0.7 0,0.2 -0.1,0.4 -0.1,0.4 -0.1,0.3 -0.3,0.5 -0.5,0.8 -0.1,0.1 -1.6,2.6 -4.8,5.1 -2,1.5 -4.2,2.6 -6.6,3.5 -3,1.1 -6.3,1.6 -9.8,1.6"
         class="st1"
         inkscape:connector-curvature="0"
         style="fill:#f7b334" />
      <path
         id="path10211"
         d="M 9.9,4 C 10,2.2 7.1,2.5 7.1,2.5 V 1.6 H 15 L 20,16 c 1.2,3.7 2.2,6.9 3,10 h 0.1 C 23.9,23 25,19.7 26.3,16 L 31.6,1.6 h 4.9 l 1.9,29.8 H 34.6 L 33.9,18.3 C 33.7,14.1 33.4,9.1 33.4,5.4 H 33.3 C 32.2,8.9 31,12.6 29.5,16.7 L 24.2,31.2 H 21.3 L 16.5,17 C 15.1,12.8 13.9,8.9 13.1,5.4 H 13 c -0.1,3.7 -0.3,8.7 -0.6,13.2 L 11.6,31.4 H 8 Z"
         class="st0"
         inkscape:connector-curvature="0"
         style="fill:#50748a" />
    </g>
  </g>
  <style
     id="style10189"
     type="text/css">
	.st0{fill:#50748A;}
	.st1{fill:#F7B334;}
</style>
</svg>
